<?xml version="1.0" encoding="utf-8"?>
<!-- Generator: Adobe Illustrator 23.1.0, SVG Export Plug-In . SVG Version: 6.00 Build 0)  -->
<svg version="1.1" id="Layer_1" xmlns="http://www.w3.org/2000/svg" xmlns:xlink="http://www.w3.org/1999/xlink" x="0px" y="0px"
	 viewBox="0 0 1131.9 963.5" style="enable-background:new 0 0 1131.9 963.5;" xml:space="preserve">
<style type="text/css">
	.st0{fill:none;stroke:#000000;stroke-miterlimit:10;}
</style>
<g>
	
		<image style="overflow:visible;enable-background:new    ;" width="3481" height="2966" xlink:href="D80E2CFC.png"  transform="matrix(0.3225 0 0 0.3225 4.6623 -5.246806e-02)">
	</image>
</g>
<g>
	<line class="st0" x1="312" y1="305.8" x2="361.2" y2="474"/>
	<line class="st0" x1="311.2" y1="475" x2="361.7" y2="305.8"/>
	<line class="st0" x1="548" y1="303.8" x2="597.2" y2="472"/>
	<line class="st0" x1="547.2" y1="473" x2="597.7" y2="303.8"/>
	<line class="st0" x1="779" y1="303.8" x2="828.6" y2="475.8"/>
	<line class="st0" x1="779.4" y1="475.9" x2="828.7" y2="303.8"/>
	<path class="st0" d="M226.2,538c0,5.4-4.6,9.5-10.3,9.5h-27.6c-5.7,0-10.3-4.1-10.3-9.5l0,0c0-5.4,4.6-9.5,10.3-9.5h27.6
		C221.6,528.5,226.2,532.6,226.2,538L226.2,538z"/>
	<path class="st0" d="M522.2,533c0,5.4-4.6,9.5-10.3,9.5h-27.6c-5.7,0-10.3-4.1-10.3-9.5l0,0c0-5.4,4.6-9.5,10.3-9.5h27.6
		C517.6,523.5,522.2,527.6,522.2,533L522.2,533z"/>
	<path class="st0" d="M522.2,553c0,5.4-4.6,9.5-10.3,9.5h-27.6c-5.7,0-10.3-4.1-10.3-9.5l0,0c0-5.4,4.6-9.5,10.3-9.5h27.6
		C517.6,543.5,522.2,547.6,522.2,553L522.2,553z"/>
	<path class="st0" d="M753.2,534c0,5.4-4.6,9.5-10.3,9.5h-27.6c-5.7,0-10.3-4.1-10.3-9.5l0,0c0-5.4,4.6-9.5,10.3-9.5h27.6
		C748.6,524.5,753.2,528.6,753.2,534L753.2,534z"/>
	<path class="st0" d="M754.2,553c0,5.4-4.6,9.5-10.3,9.5h-27.6c-5.7,0-10.3-4.1-10.3-9.5l0,0c0-5.4,4.6-9.5,10.3-9.5h27.6
		C749.6,543.5,754.2,547.6,754.2,553L754.2,553z"/>
	<path class="st0" d="M828.7,533.5c0,5.7-4.7,10-10.6,10h-28.3c-5.9,0-10.6-4.3-10.6-10l0,0c0-5.7,4.7-10,10.6-10h28.3
		C824,523.5,828.7,527.8,828.7,533.5L828.7,533.5z"/>
	<path class="st0" d="M828.2,553c0,5.5-4.7,9.5-10.5,9.5h-28c-5.8,0-10.5-4-10.5-9.5l0,0c0-5.5,4.7-9.5,10.5-9.5h28
		C823.5,543.5,828.2,547.5,828.2,553L828.2,553z"/>
	<path class="st0" d="M437.2,718c0,5.4-4.6,9.5-10.3,9.5h-27.6c-5.7,0-10.3-4.1-10.3-9.5l0,0c0-5.4,4.6-9.5,10.3-9.5h27.6
		C432.6,708.5,437.2,712.6,437.2,718L437.2,718z"/>
	<path class="st0" d="M669.2,718c0,5.4-4.6,9.5-10.3,9.5h-27.6c-5.7,0-10.3-4.1-10.3-9.5l0,0c0-5.4,4.6-9.5,10.3-9.5h27.6
		C664.6,708.5,669.2,712.6,669.2,718L669.2,718z"/>
	<path class="st0" d="M226.2,93c0,5.4-4.6,9.5-10.3,9.5h-27.6c-5.7,0-10.3-4.1-10.3-9.5l0,0c0-5.4,4.6-9.5,10.3-9.5h27.6
		C221.6,83.5,226.2,87.6,226.2,93L226.2,93z"/>
	<path class="st0" d="M177.2,122c0,5.4-4.6,9.5-10.3,9.5h-27.6c-5.7,0-10.3-4.1-10.3-9.5l0,0c0-5.4,4.6-9.5,10.3-9.5h27.6
		C172.6,112.5,177.2,116.6,177.2,122L177.2,122z"/>
	<path class="st0" d="M226.2,122c0,5.4-4.6,9.5-10.3,9.5h-27.6c-5.7,0-10.3-4.1-10.3-9.5l0,0c0-5.4,4.6-9.5,10.3-9.5h27.6
		C221.6,112.5,226.2,116.6,226.2,122L226.2,122z"/>
	<path class="st0" d="M226.2,151c0,5.4-4.6,9.5-10.3,9.5h-27.6c-5.7,0-10.3-4.1-10.3-9.5l0,0c0-5.4,4.6-9.5,10.3-9.5h27.6
		C221.6,141.5,226.2,145.6,226.2,151L226.2,151z"/>
	<path class="st0" d="M441.2,40c0,5.4-4.6,9.5-10.3,9.5h-27.6c-5.7,0-10.3-4.1-10.3-9.5l0,0c0-5.4,4.6-9.5,10.3-9.5h27.6
		C436.6,30.5,441.2,34.6,441.2,40L441.2,40z"/>
	<path class="st0" d="M411.2,138c0,5.4-4.6,9.5-10.3,9.5h-27.6c-5.7,0-10.3-4.1-10.3-9.5l0,0c0-5.4,4.6-9.5,10.3-9.5h27.6
		C406.6,128.5,411.2,132.6,411.2,138L411.2,138z"/>
	<path class="st0" d="M177.2,230c0,5.4-4.6,9.5-10.3,9.5h-27.6c-5.7,0-10.3-4.1-10.3-9.5l0,0c0-5.4,4.6-9.5,10.3-9.5h27.6
		C172.6,220.5,177.2,224.6,177.2,230L177.2,230z"/>
	<path class="st0" d="M226.2,230c0,5.4-4.6,9.5-10.3,9.5h-27.6c-5.7,0-10.3-4.1-10.3-9.5l0,0c0-5.4,4.6-9.5,10.3-9.5h27.6
		C221.6,220.5,226.2,224.6,226.2,230L226.2,230z"/>
	<path class="st0" d="M440.2,227c0,5.4-4.6,9.5-10.3,9.5h-27.6c-5.7,0-10.3-4.1-10.3-9.5l0,0c0-5.4,4.6-9.5,10.3-9.5h27.6
		C435.6,217.5,440.2,221.6,440.2,227L440.2,227z"/>
	<path class="st0" d="M440.2,246c0,5.4-4.6,9.5-10.3,9.5h-27.6c-5.7,0-10.3-4.1-10.3-9.5l0,0c0-5.4,4.6-9.5,10.3-9.5h27.6
		C435.6,236.5,440.2,240.6,440.2,246L440.2,246z"/>
	<path class="st0" d="M226.2,259c0,5.4-4.6,9.5-10.3,9.5h-27.6c-5.7,0-10.3-4.1-10.3-9.5l0,0c0-5.4,4.6-9.5,10.3-9.5h27.6
		C221.6,249.5,226.2,253.6,226.2,259L226.2,259z"/>
	<path class="st0" d="M226.2,297c0,5.4-4.6,9.5-10.3,9.5h-27.6c-5.7,0-10.3-4.1-10.3-9.5l0,0c0-5.4,4.6-9.5,10.3-9.5h27.6
		C221.6,287.5,226.2,291.6,226.2,297L226.2,297z"/>
	<path class="st0" d="M236.2,336c0,5.4-4.6,9.5-10.3,9.5h-27.6c-5.7,0-10.3-4.1-10.3-9.5l0,0c0-5.4,4.6-9.5,10.3-9.5h27.6
		C231.6,326.5,236.2,330.6,236.2,336L236.2,336z"/>
	<path class="st0" d="M673.2,227c0,5.4-4.6,9.5-10.3,9.5h-27.6c-5.7,0-10.3-4.1-10.3-9.5l0,0c0-5.4,4.6-9.5,10.3-9.5h27.6
		C668.6,217.5,673.2,221.6,673.2,227L673.2,227z"/>
	<path class="st0" d="M673.2,246c0,5.4-4.6,9.5-10.3,9.5h-27.6c-5.7,0-10.3-4.1-10.3-9.5l0,0c0-5.4,4.6-9.5,10.3-9.5h27.6
		C668.6,236.5,673.2,240.6,673.2,246L673.2,246z"/>
	<path class="st0" d="M846.2,82.5c0,5.6-4.7,10-10.6,10h-28.1c-5.8,0-10.6-4.4-10.6-10l0,0c0-5.6,4.7-10,10.6-10h28.1
		C841.5,72.5,846.2,76.9,846.2,82.5L846.2,82.5z"/>
	<path class="st0" d="M1030.2,115c0,5.4-4.6,9.5-10.3,9.5h-27.6c-5.7,0-10.3-4.1-10.3-9.5l0,0c0-5.4,4.6-9.5,10.3-9.5h27.6
		C1025.6,105.5,1030.2,109.6,1030.2,115L1030.2,115z"/>
	<path class="st0" d="M1034.2,159c0,5.4-4.6,9.5-10.3,9.5h-27.6c-5.7,0-10.3-4.1-10.3-9.5l0,0c0-5.4,4.6-9.5,10.3-9.5h27.6
		C1029.6,149.5,1034.2,153.6,1034.2,159L1034.2,159z"/>
	<path class="st0" d="M1078.2,265c0,5.4-4.6,9.5-10.3,9.5h-27.6c-5.7,0-10.3-4.1-10.3-9.5l0,0c0-5.4,4.6-9.5,10.3-9.5h27.6
		C1073.6,255.5,1078.2,259.6,1078.2,265L1078.2,265z"/>
	<path class="st0" d="M1078.2,335c0,5.4-4.6,9.5-10.3,9.5h-27.6c-5.7,0-10.3-4.1-10.3-9.5l0,0c0-5.4,4.6-9.5,10.3-9.5h27.6
		C1073.6,325.5,1078.2,329.6,1078.2,335L1078.2,335z"/>
	<path class="st0" d="M1030.2,386c0,5.4-4.6,9.5-10.3,9.5h-27.6c-5.7,0-10.3-4.1-10.3-9.5l0,0c0-5.4,4.6-9.5,10.3-9.5h27.6
		C1025.6,376.5,1030.2,380.6,1030.2,386L1030.2,386z"/>
	<path class="st0" d="M1030.2,421c0,5.4-4.6,9.5-10.3,9.5h-27.6c-5.7,0-10.3-4.1-10.3-9.5l0,0c0-5.4,4.6-9.5,10.3-9.5h27.6
		C1025.6,411.5,1030.2,415.6,1030.2,421L1030.2,421z"/>
	<path class="st0" d="M1078.2,575c0,5.4-4.6,9.5-10.3,9.5h-27.6c-5.7,0-10.3-4.1-10.3-9.5l0,0c0-5.4,4.6-9.5,10.3-9.5h27.6
		C1073.6,565.5,1078.2,569.6,1078.2,575L1078.2,575z"/>
	<path class="st0" d="M1015.2,632c0,5.4-4.6,9.5-10.3,9.5h-27.6c-5.7,0-10.3-4.1-10.3-9.5l0,0c0-5.4,4.6-9.5,10.3-9.5h27.6
		C1010.6,622.5,1015.2,626.6,1015.2,632L1015.2,632z"/>
	<path class="st0" d="M1064.2,632c0,5.4-4.7,9.5-10.5,9.5h-27.9c-5.8,0-10.5-4.1-10.5-9.5l0,0c0-5.4,4.7-9.5,10.5-9.5h27.9
		C1059.5,622.5,1064.2,626.6,1064.2,632L1064.2,632z"/>
	<path class="st0" d="M1015.7,690.5c0,5.6-4.8,10-10.7,10h-28.4c-5.9,0-10.7-4.4-10.7-10l0,0c0-5.6,4.8-10,10.7-10h28.4
		C1011,680.5,1015.7,684.9,1015.7,690.5L1015.7,690.5z"/>
	<path class="st0" d="M1017.2,765c0,5.4-4.7,9.5-10.5,9.5h-27.9c-5.8,0-10.5-4.1-10.5-9.5l0,0c0-5.4,4.7-9.5,10.5-9.5h27.9
		C1012.5,755.5,1017.2,759.6,1017.2,765L1017.2,765z"/>
	<path class="st0" d="M1017.2,831c0,5.4-4.7,9.5-10.4,9.5H979c-5.8,0-10.4-4.1-10.4-9.5l0,0c0-5.4,4.7-9.5,10.4-9.5h27.8
		C1012.6,821.5,1017.2,825.6,1017.2,831L1017.2,831z"/>
	<path class="st0" d="M986.2,915c0,5.4-4.6,9.5-10.3,9.5h-27.6c-5.7,0-10.3-4.1-10.3-9.5l0,0c0-5.4,4.6-9.5,10.3-9.5h27.6
		C981.6,905.5,986.2,909.6,986.2,915L986.2,915z"/>
	<path class="st0" d="M792.2,853.5c0,5.7-4.6,10-10.3,10h-27.6c-5.7,0-10.3-4.3-10.3-10l0,0c0-5.7,4.6-10,10.3-10h27.6
		C787.6,843.5,792.2,847.8,792.2,853.5L792.2,853.5z"/>
	<path class="st0" d="M1111.2,470c0,6.4-5.5,11.5-12.3,11.5h-32.7c-6.8,0-12.3-5.1-12.3-11.5l0,0c0-6.4,5.5-11.5,12.3-11.5h32.7
		C1105.7,458.5,1111.2,463.6,1111.2,470L1111.2,470z"/>
	<path class="st0" d="M241.2,844.5c0,5.6-4.7,10-10.5,10h-28.1c-5.8,0-10.5-4.4-10.5-10l0,0c0-5.6,4.7-10,10.5-10h28.1
		C236.5,834.5,241.2,838.9,241.2,844.5L241.2,844.5z"/>
	<path class="st0" d="M299.2,844.5c0,5.6-4.6,10-10.3,10h-27.6c-5.7,0-10.3-4.4-10.3-10l0,0c0-5.6,4.6-10,10.3-10h27.6
		C294.6,834.5,299.2,838.9,299.2,844.5L299.2,844.5z"/>
	<path class="st0" d="M358.4,844.5c0,5.6-4.7,10-10.6,10h-28.2c-5.8,0-10.6-4.4-10.6-10l0,0c0-5.6,4.7-10,10.6-10h28.2
		C353.6,834.5,358.4,838.9,358.4,844.5L358.4,844.5z"/>
	<path class="st0" d="M421.2,844.5c0,5.5-4.7,10-10.6,10h-28.1c-5.8,0-10.6-4.5-10.6-10l0,0c0-5.5,4.7-10,10.6-10h28.1
		C416.5,834.5,421.2,839,421.2,844.5L421.2,844.5z"/>
	<polygon class="st0" points="30.2,41 30.2,107 128.4,93.7 128.1,52.3 	"/>
	<line class="st0" x1="17.7" y1="73.5" x2="135.7" y2="73.5"/>
	<polyline class="st0" points="127.7,57.5 300.2,57.5 300.2,88 	"/>
	<polygon class="st0" points="310.2,63 310.2,72 316.6,69 322.7,69.2 329.2,72.3 329.2,63 322.6,65.8 317.2,66 	"/>
	<polygon class="st0" points="313.2,135 313.2,141.1 317.5,139.1 321.8,139.2 326.2,141.3 326.2,135 321.6,136.9 318,137 	"/>
	<polygon class="st0" points="339.2,63 339.2,72 345.6,69 351.7,69.2 358.2,72.3 358.2,63 351.6,65.8 346.2,66 	"/>
	<polygon class="st0" points="368.2,63 368.2,72 374.6,69 380.7,69.2 387.2,72.3 387.2,63 380.6,65.8 375.2,66 	"/>
	<polygon class="st0" points="342.2,135 342.2,141.1 346.5,139.1 350.8,139.2 355.2,141.3 355.2,135 350.6,136.9 347,137 	"/>
	<line class="st0" x1="300.2" y1="67.3" x2="309.7" y2="67.5"/>
	<line class="st0" x1="329.7" y1="67.5" x2="338.7" y2="67.5"/>
	<line class="st0" x1="358.7" y1="67.5" x2="367.7" y2="67.5"/>
	<line class="st0" x1="387.7" y1="67.5" x2="497.7" y2="67.5"/>
	<line class="st0" x1="498.2" y1="52" x2="498.2" y2="68"/>
	<line class="st0" x1="377.2" y1="64" x2="377.2" y2="51"/>
	<line class="st0" x1="377.7" y1="40.5" x2="392.7" y2="40.5"/>
	<line class="st0" x1="371.7" y1="50.5" x2="383.7" y2="50.5"/>
	<path class="st0" d="M383.5,50.1c0,0-0.3-3.9-6-4.2c0,0-4-0.9-5.8,4.1"/>
	<line class="st0" x1="377.2" y1="40" x2="377.2" y2="46"/>
	<rect x="494.2" y="29.5" class="st0" width="9" height="23"/>
	<line class="st0" x1="495.7" y1="33.5" x2="502.7" y2="33.5"/>
	<line class="st0" x1="494.7" y1="38.5" x2="500.7" y2="38.5"/>
	<line class="st0" x1="495.7" y1="43.5" x2="502.7" y2="43.5"/>
	<line class="st0" x1="493.7" y1="47.5" x2="500.7" y2="47.5"/>
	<polygon class="st0" points="463.4,579.5 454.4,579.5 457.4,585.7 457.2,591.9 454.1,598.5 463.4,598.5 460.6,591.7 460.4,586.4 	
		"/>
	<polygon class="st0" points="463.4,608.5 454.4,608.5 457.4,614.7 457.2,620.9 454.1,627.5 463.4,627.5 460.6,620.7 460.4,615.4 	
		"/>
	<polygon class="st0" points="464.4,637.5 455.4,637.5 458.4,643.7 458.2,649.9 455.1,656.5 464.4,656.5 461.6,649.7 461.4,644.4 	
		"/>
	<polygon class="st0" points="464.4,666.5 455.4,666.5 458.4,672.7 458.2,678.9 455.1,685.5 464.4,685.5 461.6,678.7 461.4,673.4 	
		"/>
	<polygon class="st0" points="502.4,598.5 493.4,598.5 496.4,604.7 496.2,610.9 493.1,617.5 502.4,617.5 499.6,610.7 499.4,605.4 	
		"/>
	<polygon class="st0" points="502.4,646.5 493.4,646.5 496.4,652.7 496.2,658.9 493.1,665.5 502.4,665.5 499.6,658.7 499.4,653.4 	
		"/>
	<path class="st0" d="M295.8,88.5c0,0,2.7,1.9,2.5,9.4l4.4,0.1c0,0-0.7-6.3,2.3-9.6L295.8,88.5z"/>
	<circle class="st0" cx="277.7" cy="187.3" r="6.1"/>
	<path class="st0" d="M280.4,185.6"/>
	<line class="st0" x1="275.5" y1="185.5" x2="280.4" y2="185.5"/>
	<line class="st0" x1="275.7" y1="188.5" x2="280.7" y2="188.5"/>
	<line class="st0" x1="275.7" y1="188.4" x2="279.9" y2="187"/>
	<line class="st0" x1="275.8" y1="185.5" x2="279.9" y2="187"/>
	<line class="st0" x1="300.2" y1="99" x2="300.2" y2="177"/>
	<line class="st0" x1="226.7" y1="93.5" x2="296.7" y2="93.5"/>
	<line class="st0" x1="226.7" y1="122.5" x2="299.7" y2="122.5"/>
	<line class="st0" x1="226.7" y1="151.5" x2="249.7" y2="151.5"/>
	<line class="st0" x1="263.7" y1="151.5" x2="278.7" y2="151.5"/>
	<line class="st0" x1="292.7" y1="151.5" x2="298.7" y2="151.5"/>
	<line class="st0" x1="300.7" y1="168.5" x2="338.7" y2="168.5"/>
	<line class="st0" x1="339.2" y1="168" x2="339.2" y2="179"/>
	<line class="st0" x1="300.2" y1="197" x2="300.2" y2="216"/>
	<line class="st0" x1="300.7" y1="205.5" x2="338.7" y2="205.5"/>
	<line class="st0" x1="339.2" y1="205" x2="339.2" y2="193"/>
	<line class="st0" x1="226.7" y1="230.5" x2="289.7" y2="230.5"/>
	<line class="st0" x1="225.7" y1="259.5" x2="238.7" y2="259.5"/>
	<line class="st0" x1="252.7" y1="259.5" x2="267.7" y2="259.5"/>
	<line class="st0" x1="281.7" y1="258.5" x2="288.7" y2="258.5"/>
	<line class="st0" x1="225.7" y1="297.5" x2="239.7" y2="297.5"/>
	<line class="st0" x1="252.7" y1="297.5" x2="267.7" y2="297.5"/>
	<line class="st0" x1="213.2" y1="346" x2="213.2" y2="363"/>
	<line class="st0" x1="213.2" y1="368" x2="213.2" y2="380"/>
	<line class="st0" x1="188.7" y1="383.5" x2="202.7" y2="383.5"/>
	<line class="st0" x1="222.7" y1="383.5" x2="231.7" y2="383.5"/>
	<line class="st0" x1="251.7" y1="383.5" x2="260.7" y2="383.5"/>
	<line class="st0" x1="279.7" y1="383.5" x2="288.7" y2="383.5"/>
	<line class="st0" x1="416.2" y1="256" x2="416.2" y2="304"/>
	<line class="st0" x1="411.7" y1="312.5" x2="435.7" y2="312.5"/>
	<line class="st0" x1="241.2" y1="442" x2="241.2" y2="452"/>
	<line class="st0" x1="240.7" y1="451.5" x2="288.7" y2="451.5"/>
	<line class="st0" x1="460.2" y1="514" x2="460.2" y2="578"/>
	<line class="st0" x1="498.2" y1="476" x2="498.2" y2="524"/>
	<line class="st0" x1="498.2" y1="618" x2="498.2" y2="645"/>
	<line class="st0" x1="460.2" y1="687" x2="460.2" y2="713"/>
	<line class="st0" x1="460.7" y1="694.5" x2="497.7" y2="694.5"/>
	<line class="st0" x1="498.2" y1="694" x2="498.2" y2="667"/>
	<line class="st0" x1="460.2" y1="724" x2="460.2" y2="907"/>
	<line class="st0" x1="436.7" y1="718.5" x2="456.7" y2="718.5"/>
	<line class="st0" x1="225.7" y1="538.5" x2="239.7" y2="538.5"/>
	<line class="st0" x1="252.7" y1="538.5" x2="267.7" y2="538.5"/>
	<line class="st0" x1="281.7" y1="538.5" x2="288.7" y2="538.5"/>
	<line class="st0" x1="460.7" y1="569.5" x2="498.7" y2="569.5"/>
	<line class="st0" x1="498.2" y1="571" x2="498.2" y2="597"/>
	<line class="st0" x1="460.2" y1="599" x2="460.2" y2="608"/>
	<line class="st0" x1="459.2" y1="628" x2="459.2" y2="637"/>
	<line class="st0" x1="460.2" y1="657" x2="460.2" y2="665"/>
	<line class="st0" x1="157.7" y1="930.5" x2="392.7" y2="930.5"/>
	<line class="st0" x1="216.2" y1="854" x2="216.2" y2="876"/>
	<line class="st0" x1="275.2" y1="854" x2="275.2" y2="876"/>
	<line class="st0" x1="334.2" y1="854" x2="334.2" y2="930"/>
	<line class="st0" x1="397.2" y1="854" x2="397.2" y2="928"/>
	<line class="st0" x1="401.7" y1="931.5" x2="521.7" y2="931.5"/>
	<line class="st0" x1="460.2" y1="932" x2="460.2" y2="902"/>
	<line class="st0" x1="522.2" y1="752" x2="522.2" y2="932"/>
	<line class="st0" x1="522.7" y1="931.5" x2="549.7" y2="931.5"/>
	<line class="st0" x1="558.7" y1="931.5" x2="594.7" y2="931.5"/>
	<line class="st0" x1="585.2" y1="932" x2="585.2" y2="868"/>
	<line class="st0" x1="584.7" y1="867.5" x2="624.7" y2="867.5"/>
	<line class="st0" x1="642.7" y1="867.5" x2="681.7" y2="867.5"/>
	<line class="st0" x1="662.2" y1="859" x2="662.2" y2="868"/>
	<line class="st0" x1="662.2" y1="830" x2="662.2" y2="839"/>
	<line class="st0" x1="662.2" y1="811" x2="662.2" y2="805"/>
	<line class="st0" x1="521.7" y1="751.5" x2="691.7" y2="751.5"/>
	<line class="st0" x1="691.2" y1="724" x2="691.2" y2="751"/>
	<line class="st0" x1="691.2" y1="685" x2="691.2" y2="713"/>
	<line class="st0" x1="668.7" y1="718.5" x2="687.7" y2="718.5"/>
	<line class="st0" x1="691.7" y1="694.5" x2="729.7" y2="694.5"/>
	<line class="st0" x1="729.2" y1="666" x2="729.2" y2="694"/>
	<line class="st0" x1="729.2" y1="646" x2="729.2" y2="619"/>
	<line class="st0" x1="691.2" y1="515" x2="691.2" y2="579"/>
	<line class="st0" x1="691.7" y1="569.5" x2="729.7" y2="569.5"/>
	<line class="st0" x1="729.2" y1="570" x2="729.2" y2="599"/>
	<line class="st0" x1="691.2" y1="599" x2="691.2" y2="607"/>
	<line class="st0" x1="691.2" y1="656" x2="691.2" y2="666"/>
	<line class="st0" x1="691.2" y1="628" x2="691.2" y2="637"/>
	<line class="st0" x1="674.7" y1="617.5" x2="686.7" y2="617.5"/>
	<line class="st0" x1="730.2" y1="476" x2="730.2" y2="523"/>
	<line class="st0" x1="442.7" y1="617.5" x2="456.7" y2="617.5"/>
	<path class="st0" d="M442.2,624v-12C442.2,612,433.2,616.3,442.2,624z"/>
	<polygon class="st0" points="694.4,579.5 685.4,579.5 688.4,585.7 688.2,591.9 685.1,598.5 694.4,598.5 691.6,591.7 691.4,586.4 	
		"/>
	<polygon class="st0" points="694.4,608.5 685.4,608.5 688.4,614.7 688.2,620.9 685.1,627.5 694.4,627.5 691.6,620.7 691.4,615.4 	
		"/>
	<polygon class="st0" points="695.4,637.5 686.4,637.5 689.4,643.7 689.2,649.9 686.1,656.5 695.4,656.5 692.6,649.7 692.4,644.4 	
		"/>
	<polygon class="st0" points="695.4,666.5 686.4,666.5 689.4,672.7 689.2,678.9 686.1,685.5 695.4,685.5 692.6,678.7 692.4,673.4 	
		"/>
	<polygon class="st0" points="734.4,598.5 725.4,598.5 728.4,604.7 728.2,610.9 725.1,617.5 734.4,617.5 731.6,610.7 731.4,605.4 	
		"/>
	<polygon class="st0" points="734.4,646.5 725.4,646.5 728.4,652.7 728.2,658.9 725.1,665.5 734.4,665.5 731.6,658.7 731.4,653.4 	
		"/>
	<line class="st0" x1="691.2" y1="514" x2="691.2" y2="578"/>
	<line class="st0" x1="729.2" y1="618" x2="729.2" y2="645"/>
	<line class="st0" x1="691.2" y1="687" x2="691.2" y2="713"/>
	<line class="st0" x1="691.7" y1="694.5" x2="728.7" y2="694.5"/>
	<line class="st0" x1="729.2" y1="694" x2="729.2" y2="667"/>
	<line class="st0" x1="691.7" y1="569.5" x2="729.7" y2="569.5"/>
	<line class="st0" x1="729.2" y1="571" x2="729.2" y2="597"/>
	<line class="st0" x1="691.2" y1="599" x2="691.2" y2="608"/>
	<line class="st0" x1="691.2" y1="657" x2="691.2" y2="665"/>
	<line class="st0" x1="673.7" y1="617.5" x2="687.7" y2="617.5"/>
	<path class="st0" d="M673.2,624v-12C673.2,612,664.2,616.3,673.2,624z"/>
	<line class="st0" x1="82.2" y1="924" x2="82.2" y2="938"/>
	<line class="st0" x1="82.7" y1="937.5" x2="155.7" y2="937.5"/>
	<line class="st0" x1="155.7" y1="937.5" x2="158.7" y2="931"/>
	<line class="st0" x1="156.1" y1="924" x2="158.6" y2="931"/>
	<line class="st0" x1="81.7" y1="924.5" x2="155.7" y2="924.5"/>
	<line class="st0" x1="300.7" y1="138.5" x2="312.7" y2="138.5"/>
	<line class="st0" x1="326.7" y1="138.5" x2="340.7" y2="138.5"/>
	<line class="st0" x1="355.7" y1="137.5" x2="361.7" y2="137.5"/>
	<polygon class="st0" points="250.2,148 250.2,154.1 254.5,152.1 258.8,152.2 263.2,154.3 263.2,148 258.6,149.9 255,150 	"/>
	<polygon class="st0" points="279.2,148 279.2,154.1 283.5,152.1 287.8,152.2 292.2,154.3 292.2,148 287.6,149.9 284,150 	"/>
	<line class="st0" x1="237.7" y1="151.5" x2="249.7" y2="151.5"/>
	<line class="st0" x1="263.7" y1="151.5" x2="277.7" y2="151.5"/>
	<line class="st0" x1="292.7" y1="150.5" x2="298.7" y2="150.5"/>
	<polygon class="st0" points="239.2,256 239.2,262.1 243.5,260.1 247.8,260.2 252.2,262.3 252.2,256 247.6,257.9 244,258 	"/>
	<polygon class="st0" points="268.2,256 268.2,262.1 272.5,260.1 276.8,260.2 281.2,262.3 281.2,256 276.6,257.9 273,258 	"/>
	<line class="st0" x1="226.7" y1="259.5" x2="238.7" y2="259.5"/>
	<line class="st0" x1="252.7" y1="259.5" x2="266.7" y2="259.5"/>
	<line class="st0" x1="281.7" y1="258.5" x2="287.7" y2="258.5"/>
	<polygon class="st0" points="239.2,294 239.2,300.1 243.5,298.1 247.8,298.2 252.2,300.3 252.2,294 247.6,295.9 244,296 	"/>
	<polygon class="st0" points="268.2,294 268.2,300.1 272.5,298.1 276.8,298.2 281.2,300.3 281.2,294 276.6,295.9 273,296 	"/>
	<line class="st0" x1="226.7" y1="297.5" x2="238.7" y2="297.5"/>
	<line class="st0" x1="252.7" y1="297.5" x2="266.7" y2="297.5"/>
	<line class="st0" x1="281.7" y1="296.5" x2="287.7" y2="296.5"/>
	<polygon class="st0" points="239.2,535 239.2,541.1 243.5,539.1 247.8,539.2 252.2,541.3 252.2,535 247.6,536.9 244,537 	"/>
	<polygon class="st0" points="268.2,535 268.2,541.1 272.5,539.1 276.8,539.2 281.2,541.3 281.2,535 276.6,536.9 273,537 	"/>
	<line class="st0" x1="226.7" y1="538.5" x2="238.7" y2="538.5"/>
	<line class="st0" x1="252.7" y1="538.5" x2="266.7" y2="538.5"/>
	<line class="st0" x1="281.7" y1="537.5" x2="287.7" y2="537.5"/>
	<polygon class="st0" points="931.2,247 931.2,253.1 935.5,251.1 939.8,251.2 944.2,253.3 944.2,247 939.6,248.9 936,249 	"/>
	<polygon class="st0" points="960.2,247 960.2,253.1 964.5,251.1 968.8,251.2 973.2,253.3 973.2,247 968.6,248.9 965,249 	"/>
	<line class="st0" x1="918.7" y1="250.5" x2="930.7" y2="250.5"/>
	<line class="st0" x1="944.7" y1="250.5" x2="959.7" y2="250.5"/>
	<line class="st0" x1="973.7" y1="250.5" x2="1010.7" y2="250.5"/>
	<polygon class="st0" points="931.2,276 931.2,282.1 935.5,280.1 939.8,280.2 944.2,282.3 944.2,276 939.6,277.9 936,278 	"/>
	<polygon class="st0" points="960.2,276 960.2,282.1 964.5,280.1 968.8,280.2 973.2,282.3 973.2,276 968.6,277.9 965,278 	"/>
	<line class="st0" x1="918.7" y1="279.5" x2="930.7" y2="279.5"/>
	<line class="st0" x1="944.7" y1="279.5" x2="959.7" y2="279.5"/>
	<line class="st0" x1="973.7" y1="279.5" x2="1010.7" y2="279.5"/>
	<line class="st0" x1="1021.1" y1="265" x2="1030" y2="265"/>
	<path class="st0" d="M1078.2,335c0,5.4-4.6,9.5-10.3,9.5h-27.6c-5.7,0-10.3-4.1-10.3-9.5l0,0c0-5.4,4.6-9.5,10.3-9.5h27.6
		C1073.6,325.5,1078.2,329.6,1078.2,335L1078.2,335z"/>
	<polygon class="st0" points="931.2,317 931.2,323.1 935.5,321.1 939.8,321.2 944.2,323.3 944.2,317 939.6,318.9 936,319 	"/>
	<polygon class="st0" points="960.2,317 960.2,323.1 964.5,321.1 968.8,321.2 973.2,323.3 973.2,317 968.6,318.9 965,319 	"/>
	<line class="st0" x1="918.7" y1="320.5" x2="930.7" y2="320.5"/>
	<line class="st0" x1="944.7" y1="320.5" x2="959.7" y2="320.5"/>
	<line class="st0" x1="973.7" y1="320.5" x2="1010.7" y2="320.5"/>
	<polygon class="st0" points="931.2,346 931.2,352.1 935.5,350.1 939.8,350.2 944.2,352.3 944.2,346 939.6,347.9 936,348 	"/>
	<polygon class="st0" points="960.2,346 960.2,352.1 964.5,350.1 968.8,350.2 973.2,352.3 973.2,346 968.6,347.9 965,348 	"/>
	<line class="st0" x1="918.7" y1="349.5" x2="930.7" y2="349.5"/>
	<line class="st0" x1="944.7" y1="349.5" x2="959.7" y2="349.5"/>
	<line class="st0" x1="973.7" y1="349.5" x2="1010.7" y2="349.5"/>
	<line class="st0" x1="1021.1" y1="335" x2="1030" y2="335"/>
	<path class="st0" d="M1078.2,574c0,5.4-4.6,9.5-10.3,9.5h-27.6c-5.7,0-10.3-4.1-10.3-9.5l0,0c0-5.4,4.6-9.5,10.3-9.5h27.6
		C1073.6,564.5,1078.2,568.6,1078.2,574L1078.2,574z"/>
	<polygon class="st0" points="931.2,557 931.2,563.1 935.5,561.1 939.8,561.2 944.2,563.3 944.2,557 939.6,558.9 936,559 	"/>
	<polygon class="st0" points="960.2,557 960.2,563.1 964.5,561.1 968.8,561.2 973.2,563.3 973.2,557 968.6,558.9 965,559 	"/>
	<line class="st0" x1="918.7" y1="559.5" x2="930.7" y2="559.5"/>
	<line class="st0" x1="944.7" y1="560.5" x2="959.7" y2="560.5"/>
	<line class="st0" x1="973.7" y1="560.5" x2="1010.7" y2="560.5"/>
	<polygon class="st0" points="931.2,586 931.2,592.1 935.5,590.1 939.8,590.2 944.2,592.3 944.2,586 939.6,587.9 936,588 	"/>
	<polygon class="st0" points="960.2,586 960.2,592.1 964.5,590.1 968.8,590.2 973.2,592.3 973.2,586 968.6,587.9 965,588 	"/>
	<line class="st0" x1="918.7" y1="588.5" x2="930.7" y2="588.5"/>
	<line class="st0" x1="944.7" y1="589.5" x2="959.7" y2="589.5"/>
	<line class="st0" x1="973.7" y1="589.5" x2="1010.7" y2="589.5"/>
	<line class="st0" x1="1021.1" y1="574" x2="1030" y2="574"/>
	<line class="st0" x1="700.7" y1="867.5" x2="710.7" y2="867.5"/>
	<line class="st0" x1="710.2" y1="867" x2="710.2" y2="932"/>
	<line class="st0" x1="701.7" y1="931.5" x2="734.7" y2="931.5"/>
	<line class="st0" x1="744.7" y1="931.5" x2="899.7" y2="931.5"/>
	<line class="st0" x1="899.2" y1="864" x2="899.2" y2="931"/>
	<line class="st0" x1="898.7" y1="915.5" x2="937.7" y2="915.5"/>
	<line class="st0" x1="930.7" y1="831.5" x2="968.7" y2="831.5"/>
	<line class="st0" x1="929.7" y1="765.5" x2="968.7" y2="765.5"/>
	<polygon class="st0" points="931.2,383 931.2,389.1 935.5,387.1 939.8,387.2 944.2,389.3 944.2,383 939.6,384.9 936,385 	"/>
	<polygon class="st0" points="960.2,383 960.2,389.1 964.5,387.1 968.8,387.2 973.2,389.3 973.2,383 968.6,384.9 965,385 	"/>
	<line class="st0" x1="918.7" y1="386.5" x2="930.7" y2="386.5"/>
	<line class="st0" x1="944.7" y1="386.5" x2="960.7" y2="386.5"/>
	<line class="st0" x1="982" y1="386" x2="973.7" y2="386"/>
	<polygon class="st0" points="931.2,418 931.2,424.1 935.5,422.1 939.8,422.2 944.2,424.3 944.2,418 939.6,419.9 936,420 	"/>
	<polygon class="st0" points="960.2,418 960.2,424.1 964.5,422.1 968.8,422.2 973.2,424.3 973.2,418 968.6,419.9 965,420 	"/>
	<line class="st0" x1="918.7" y1="421.5" x2="930.7" y2="421.5"/>
	<line class="st0" x1="944.7" y1="420.5" x2="959.7" y2="420.5"/>
	<line class="st0" x1="982" y1="421" x2="973.7" y2="421"/>
	<polygon class="st0" points="931.2,452 931.2,458.1 935.5,456.1 939.8,456.2 944.2,458.3 944.2,452 939.6,453.9 936,454 	"/>
	<polygon class="st0" points="960.2,452 960.2,458.1 964.5,456.1 968.8,456.2 973.2,458.3 973.2,452 968.6,453.9 965,454 	"/>
	<line class="st0" x1="918.7" y1="455.5" x2="930.7" y2="455.5"/>
	<line class="st0" x1="944.7" y1="455.5" x2="959.7" y2="455.5"/>
	<line class="st0" x1="1010.5" y1="455" x2="973.7" y2="455"/>
	<polygon class="st0" points="931.2,481 931.2,487.1 935.5,485.1 939.8,485.2 944.2,487.3 944.2,481 939.6,482.9 936,483 	"/>
	<polygon class="st0" points="960.2,481 960.2,487.1 964.5,485.1 968.8,485.2 973.2,487.3 973.2,481 968.6,482.9 965,483 	"/>
	<line class="st0" x1="918.7" y1="484.5" x2="930.7" y2="484.5"/>
	<line class="st0" x1="944.7" y1="484.5" x2="959.7" y2="484.5"/>
	<line class="st0" x1="1010.2" y1="485" x2="973.7" y2="485"/>
	<line class="st0" x1="899.2" y1="613" x2="899.2" y2="732"/>
	<polygon class="st0" points="912.2,688 912.2,694.1 916.5,692.1 920.8,692.2 925.2,694.3 925.2,688 920.6,689.9 917,690 	"/>
	<polygon class="st0" points="940.2,687 940.2,693.4 944.9,691.2 949.4,691.4 954.2,693.6 954.2,687 949.3,689 945.4,689.1 	"/>
	<line class="st0" x1="899.7" y1="690.5" x2="911.7" y2="690.5"/>
	<line class="st0" x1="925.7" y1="690.5" x2="940.7" y2="690.5"/>
	<line class="st0" x1="954.7" y1="690.5" x2="965.7" y2="690.5"/>
	<line class="st0" x1="649.2" y1="256" x2="649.2" y2="302"/>
	<polygon class="st0" points="203.2,379 203.2,388 209.6,385 215.7,385.2 222.2,388.3 222.2,379 215.6,381.8 210.2,382 	"/>
	<polygon class="st0" points="232.2,379 232.2,388 238.6,385 244.7,385.2 251.2,388.3 251.2,379 244.6,381.8 239.2,382 	"/>
	<polygon class="st0" points="261.2,379 261.2,388 267.6,385 273.7,385.2 280.2,388.3 280.2,379 273.6,381.8 268.2,382 	"/>
	<line class="st0" x1="222.7" y1="383.5" x2="231.7" y2="383.5"/>
	<line class="st0" x1="251.7" y1="383.5" x2="260.7" y2="383.5"/>
	<polygon class="st0" points="305.4,177.5 296.4,177.5 299.4,183.7 299.2,189.9 296.1,196.5 305.4,196.5 302.6,189.7 302.4,184.4 	
		"/>
	<polygon class="st0" points="341.9,180.5 335.8,180.5 337.8,184.9 337.7,189.1 335.6,193.5 341.9,193.5 340,189 339.9,185.3 	"/>
	<line class="st0" x1="283.7" y1="187.5" x2="296.7" y2="187.5"/>
	<line class="st0" x1="187.7" y1="383.5" x2="203.7" y2="383.5"/>
	<rect x="165.2" y="378.5" class="st0" width="23" height="9"/>
	<line class="st0" x1="169.2" y1="386" x2="169.2" y2="379"/>
	<line class="st0" x1="174.2" y1="387" x2="174.2" y2="381"/>
	<line class="st0" x1="179.2" y1="386" x2="179.2" y2="379"/>
	<line class="st0" x1="183.2" y1="388" x2="183.2" y2="381"/>
	<path class="st0" d="M218.5,367.1c0,0-0.3-3.9-6-4.2c0,0-4-0.9-5.8,4.1"/>
	<line class="st0" x1="206.7" y1="367.5" x2="218.7" y2="367.5"/>
	<line class="st0" x1="216.2" y1="889" x2="216.2" y2="904"/>
	<polygon class="st0" points="219.4,876.5 213.3,876.5 215.3,880.6 215.2,885 213.1,889.5 219.4,889.5 217.5,884.8 217.4,881.2 	"/>
	<polygon class="st0" points="219.4,905.5 213.3,905.5 215.3,909.6 215.2,914 213.1,918.5 219.4,918.5 217.5,913.8 217.4,910.2 	"/>
	<line class="st0" x1="216.2" y1="889" x2="216.2" y2="906"/>
	<line class="st0" x1="216.2" y1="918" x2="216.2" y2="930"/>
	<line class="st0" x1="275.2" y1="891" x2="275.2" y2="906"/>
	<line class="st0" x1="275.2" y1="919" x2="275.2" y2="931"/>
	<line class="st0" x1="275.2" y1="890" x2="275.2" y2="905"/>
	<polygon class="st0" points="278.4,876.5 272.3,876.5 274.3,880.6 274.2,885 272.1,889.5 278.4,889.5 276.5,884.8 276.4,881.2 	"/>
	<polygon class="st0" points="278.4,905.5 272.3,905.5 274.3,909.6 274.2,914 272.1,918.5 278.4,918.5 276.5,913.8 276.4,910.2 	"/>
	<line class="st0" x1="275.2" y1="890" x2="275.2" y2="904"/>
	<path class="st0" d="M454.8,714.5c0,0,2.7,1.9,2.5,9.4l4.4,0.1c0,0-0.7-6.3,2.3-9.6L454.8,714.5z"/>
	<path class="st0" d="M401.2,925.6c0,0-1.8,3-8.7,2.8l-0.1,5c0,0,5.8-0.7,8.8,2.6L401.2,925.6z"/>
	<polygon class="st0" points="701.2,935.6 701.2,926.6 695.1,929.6 688.8,929.4 682.2,926.2 682.2,935.6 689.1,932.7 694.3,932.6 	
		"/>
	<polygon class="st0" points="672.2,935.6 672.2,926.6 666.1,929.6 659.8,929.4 653.2,926.2 653.2,935.6 660.1,932.7 665.3,932.6 	
		"/>
	<polygon class="st0" points="643.2,935.6 643.2,926.6 637.1,929.6 630.8,929.4 624.2,926.2 624.2,935.6 631.1,932.7 636.3,932.6 	
		"/>
	<polygon class="st0" points="614.2,935.6 614.2,926.6 608.1,929.6 601.8,929.4 595.2,926.2 595.2,935.6 602.1,932.7 607.3,932.6 	
		"/>
	<line class="st0" x1="681.7" y1="931.5" x2="672.7" y2="931.5"/>
	<line class="st0" x1="652.7" y1="930.5" x2="643.7" y2="930.5"/>
	<line class="st0" x1="623.7" y1="931.5" x2="613.7" y2="931.5"/>
	<line class="st0" x1="662.2" y1="914" x2="662.2" y2="928"/>
	<path class="st0" d="M656.1,914.5h12.5C668.6,914.5,664.1,902.5,656.1,914.5z"/>
	<polygon class="st0" points="657.4,858.5 667.5,858.5 664.1,852.6 664.3,846.2 667.9,839.5 657.4,839.5 660.6,846.5 660.7,851.7 	
		"/>
	<polygon class="st0" points="657.6,829.5 666.6,829.5 663.6,823.6 663.7,817.2 666.9,810.5 657.6,810.5 660.4,817.6 660.6,822.7 	
		"/>
	<polygon class="st0" points="643.2,872.6 643.2,863.6 637.1,866.6 630.8,866.4 624.2,863.2 624.2,872.6 631.1,869.7 636.3,869.6 	
		"/>
	<polygon class="st0" points="701.2,872.6 701.2,863.3 695.2,866.4 688.9,866.2 682.2,862.9 682.2,872.6 689.2,869.6 694.4,869.5 	
		"/>
	<line class="st0" x1="549.2" y1="926" x2="549.2" y2="936"/>
	<line class="st0" x1="549.2" y1="935.9" x2="559.5" y2="933.4"/>
	<line class="st0" x1="559.2" y1="934" x2="559.2" y2="928"/>
	<line class="st0" x1="559.2" y1="928.8" x2="549.4" y2="926.4"/>
	<line class="st0" x1="768.2" y1="919" x2="768.2" y2="931"/>
	<line class="st0" x1="768.2" y1="889" x2="768.2" y2="904"/>
	<polygon class="st0" points="771.4,875.5 765.3,875.5 767.3,880 767.2,884.6 765.1,889.5 771.4,889.5 769.5,884.4 769.4,880.6 	"/>
	<polygon class="st0" points="771.4,904.5 765.3,904.5 767.3,908.9 767.2,913.6 765.1,918.5 771.4,918.5 769.5,913.4 769.4,909.6 	
		"/>
	<line class="st0" x1="768.2" y1="863" x2="768.2" y2="876"/>
	<line class="st0" x1="744.2" y1="936" x2="744.2" y2="926"/>
	<line class="st0" x1="744.1" y1="926.4" x2="734.7" y2="928.7"/>
	<line class="st0" x1="735.1" y1="933.4" x2="744.2" y2="935.9"/>
	<line class="st0" x1="735.2" y1="928" x2="735.2" y2="934"/>
	<path class="st0" d="M686.8,713.5c0,0,2.7,1.9,2.5,9.4l4.4,0.1c0,0-0.7-6.3,2.3-9.6L686.8,713.5z"/>
	<line class="st0" x1="898.7" y1="632.5" x2="966.7" y2="632.5"/>
	<line class="st0" x1="786.7" y1="582.5" x2="808.7" y2="582.5"/>
	<line class="st0" x1="786.7" y1="603.5" x2="808.7" y2="603.5"/>
	<line class="st0" x1="813.7" y1="603.5" x2="836.7" y2="603.5"/>
	<line class="st0" x1="813.7" y1="582.5" x2="836.7" y2="582.5"/>
	<line class="st0" x1="836.2" y1="583" x2="836.2" y2="604"/>
	<line class="st0" x1="835.7" y1="593.5" x2="846.7" y2="593.5"/>
	<line class="st0" x1="849.7" y1="593.5" x2="856.7" y2="593.5"/>
	<line class="st0" x1="858.7" y1="593.5" x2="879.7" y2="593.5"/>
	<line class="st0" x1="786.7" y1="171.5" x2="808.7" y2="171.5"/>
	<line class="st0" x1="786.7" y1="192.5" x2="808.7" y2="192.5"/>
	<line class="st0" x1="814.7" y1="171.5" x2="836.7" y2="171.5"/>
	<line class="st0" x1="814.7" y1="192.5" x2="836.7" y2="192.5"/>
	<line class="st0" x1="836.2" y1="172" x2="836.2" y2="192"/>
	<line class="st0" x1="835.7" y1="182.5" x2="846.7" y2="182.5"/>
	<line class="st0" x1="849.7" y1="182.5" x2="856.7" y2="182.5"/>
	<line class="st0" x1="858.7" y1="182.5" x2="879.7" y2="182.5"/>
	<polygon class="st0" points="931.2,141 931.2,147.1 935.5,145.1 939.8,145.2 944.2,147.3 944.2,141 939.6,142.9 936,143 	"/>
	<polygon class="st0" points="960.2,141 960.2,147.1 964.5,145.1 968.8,145.2 973.2,147.3 973.2,141 968.6,142.9 965,143 	"/>
	<line class="st0" x1="944.7" y1="144.5" x2="959.7" y2="144.5"/>
	<line class="st0" x1="973.7" y1="144.5" x2="1010.7" y2="144.5"/>
	<polygon class="st0" points="931.2,170 931.2,176.1 935.5,174.1 939.8,174.2 944.2,176.3 944.2,170 939.6,171.9 936,172 	"/>
	<polygon class="st0" points="960.2,170 960.2,176.1 964.5,174.1 968.8,174.2 973.2,176.3 973.2,170 968.6,171.9 965,172 	"/>
	<line class="st0" x1="944.7" y1="173.5" x2="959.7" y2="173.5"/>
	<line class="st0" x1="973.7" y1="173.5" x2="1010.7" y2="173.5"/>
	<line class="st0" x1="918.7" y1="144.5" x2="930.7" y2="144.5"/>
	<line class="st0" x1="918.7" y1="173.5" x2="930.7" y2="173.5"/>
	<line class="st0" x1="1010.2" y1="145" x2="1010.2" y2="149"/>
	<line class="st0" x1="1010.2" y1="174" x2="1010.2" y2="169"/>
	<polygon class="st0" points="931.2,113 931.2,119.1 935.5,117.1 939.8,117.2 944.2,119.3 944.2,113 939.6,114.9 936,115 	"/>
	<polygon class="st0" points="960.2,113 960.2,119.1 964.5,117.1 968.8,117.2 973.2,119.3 973.2,113 968.6,114.9 965,115 	"/>
	<line class="st0" x1="944.7" y1="115.5" x2="960.7" y2="115.5"/>
	<line class="st0" x1="918.7" y1="115.5" x2="930.7" y2="115.5"/>
	<line class="st0" x1="973.7" y1="115.5" x2="981.7" y2="115.5"/>
	<line class="st0" x1="1020.7" y1="459.5" x2="1033.7" y2="459.5"/>
	<line class="st0" x1="1020.7" y1="463.5" x2="1033.7" y2="463.5"/>
	<line class="st0" x1="1020.7" y1="466.5" x2="1033.7" y2="466.5"/>
	<line class="st0" x1="1020.7" y1="470.5" x2="1033.7" y2="470.5"/>
	<line class="st0" x1="1020.7" y1="473.5" x2="1033.7" y2="473.5"/>
	<line class="st0" x1="1020.7" y1="477.5" x2="1033.7" y2="477.5"/>
	<line class="st0" x1="1020.7" y1="480.5" x2="1033.7" y2="480.5"/>
	<polygon class="st0" points="812.2,126 812.2,135 818.6,132 824.7,132.2 831.2,135.3 831.2,126 824.6,128.8 819.2,129 	"/>
	<polygon class="st0" points="847.2,126 847.2,135 853.6,132 859.7,132.2 866.2,135.3 866.2,126 859.6,128.8 854.2,129 	"/>
	<line class="st0" x1="837.7" y1="130.5" x2="846.7" y2="130.5"/>
	<line class="st0" x1="822.2" y1="128" x2="822.2" y2="114"/>
	<line class="st0" x1="814.7" y1="113.5" x2="827.7" y2="113.5"/>
	<path class="st0" d="M827.5,113.1c0,0-0.3-3.9-6-4.2c0,0-4-0.9-5.8,4.1"/>
	<line class="st0" x1="796.7" y1="130.5" x2="811.7" y2="130.5"/>
	<line class="st0" x1="830.7" y1="130.5" x2="838.7" y2="130.5"/>
	<line class="st0" x1="865.7" y1="131.5" x2="879.7" y2="131.5"/>
	<line class="st0" x1="822.2" y1="109" x2="822.2" y2="93"/>
	<line class="st0" x1="804.2" y1="524" x2="804.2" y2="495"/>
	<line class="st0" x1="803.7" y1="495.5" x2="828.5" y2="495.5"/>
	<polyline class="st0" points="941.7,510.1 938.8,511.5 944.1,514.3 939,516.8 944.1,519.4 942.2,520.6 942.2,523 	"/>
	<polyline class="st0" points="240.9,423.1 238.6,424.5 243.3,427.3 238.8,429.8 243,432.4 241.2,433.6 241.2,436 	"/>
	<rect x="969.2" y="518.5" class="st0" width="23" height="10"/>
	<line class="st0" x1="987.2" y1="519" x2="987.2" y2="526"/>
	<line class="st0" x1="983.2" y1="521" x2="983.2" y2="528"/>
	<line class="st0" x1="978.2" y1="519" x2="978.2" y2="526"/>
	<line class="st0" x1="974.2" y1="521" x2="974.2" y2="528"/>
	<line class="st0" x1="991.7" y1="523.5" x2="1029.7" y2="523.5"/>
	<line class="st0" x1="948.7" y1="523.5" x2="968.7" y2="523.5"/>
	<line class="st0" x1="949.2" y1="519" x2="949.2" y2="529"/>
	<line class="st0" x1="942.2" y1="523" x2="949.2" y2="528.5"/>
	<line class="st0" x1="941.2" y1="523" x2="949.4" y2="519.5"/>
	<line class="st0" x1="941.9" y1="522.5" x2="937.7" y2="531"/>
	<line class="st0" x1="937.2" y1="531.2" x2="946.7" y2="531.3"/>
	<line class="st0" x1="946.7" y1="531.5" x2="941.9" y2="522.5"/>
	<line class="st0" x1="234.2" y1="431" x2="234.2" y2="438"/>
	<line class="st0" x1="234.2" y1="438" x2="241.2" y2="433.6"/>
	<line class="st0" x1="234.7" y1="429.5" x2="241.2" y2="433.6"/>
	<line class="st0" x1="241.2" y1="433.6" x2="237.7" y2="441"/>
	<line class="st0" x1="237.7" y1="441" x2="244.7" y2="441.5"/>
	<line class="st0" x1="244.7" y1="441" x2="242.2" y2="435"/>
	<line class="st0" x1="223.7" y1="434.5" x2="232.7" y2="434.5"/>
	<line class="st0" x1="223.7" y1="434.5" x2="224.7" y2="418"/>
	<line class="st0" x1="223.2" y1="426" x2="218.2" y2="423"/>
	<line class="st0" x1="218.2" y1="423" x2="218.7" y2="414"/>
	<line class="st0" x1="218.7" y1="414" x2="224.7" y2="418"/>
	<line class="st0" x1="949.2" y1="214" x2="969.2" y2="213.5"/>
	<rect x="969.2" y="209.5" class="st0" width="23" height="9"/>
	<line class="st0" x1="987.2" y1="210" x2="987.2" y2="217"/>
	<line class="st0" x1="983.2" y1="212" x2="983.2" y2="218"/>
	<line class="st0" x1="978.2" y1="210" x2="978.2" y2="217"/>
	<line class="st0" x1="974.2" y1="212" x2="974.2" y2="219"/>
	<line class="st0" x1="991.7" y1="213.5" x2="1028.7" y2="213.5"/>
	<line class="st0" x1="829.2" y1="254" x2="829.2" y2="515"/>
	<line class="st0" x1="449.2" y1="254" x2="449.2" y2="512"/>
	<line class="st0" x1="382.2" y1="218" x2="382.2" y2="552"/>
	<line class="st0" x1="362.7" y1="217.5" x2="381.7" y2="217.5"/>
	<line class="st0" x1="680.2" y1="256" x2="680.2" y2="514"/>
	<line class="st0" x1="918.7" y1="540.5" x2="942" y2="540.5"/>
	<line class="st0" x1="942.2" y1="531" x2="942.2" y2="541"/>
	<line class="st0" x1="918.7" y1="231.5" x2="942" y2="231.5"/>
	<line class="st0" x1="942.2" y1="222" x2="942.2" y2="232"/>
	<polyline class="st0" points="941.7,201.1 938.8,202.5 944.1,205.3 939,207.8 944.1,210.4 942.2,211.6 942.2,214 	"/>
	<line class="st0" x1="942.2" y1="214" x2="949.7" y2="219"/>
	<line class="st0" x1="941.2" y1="214" x2="949.5" y2="209.1"/>
	<line class="st0" x1="941.9" y1="213.5" x2="937.1" y2="221.8"/>
	<line class="st0" x1="946.7" y1="222.5" x2="941.9" y2="213.5"/>
	<line class="st0" x1="949.2" y1="209" x2="949.2" y2="219"/>
	<line class="st0" x1="936.6" y1="222.2" x2="946.7" y2="222.3"/>
	<line class="st0" x1="1044.7" y1="470.5" x2="1111.7" y2="470.5"/>
	<line class="st0" x1="1053.7" y1="458.5" x2="1111.7" y2="458.5"/>
	<line class="st0" x1="1053.7" y1="481.5" x2="1111.7" y2="481.5"/>
	<line class="st0" x1="1053.2" y1="458" x2="1053.2" y2="482"/>
	<line class="st0" x1="1111.2" y1="458" x2="1111.2" y2="482"/>
</g>
</svg>
