<svg xmlns="http://www.w3.org/2000/svg" width="1em" height="1em" viewBox="0 0 16 16">
  <path fill="#4A4A4A" fill-rule="evenodd" d="M8.2 1.047l5.54 2.72a.47.47 0 0 1 .26.421c0 6.687-5.507 10.569-5.741 10.731a.455.455 0 0 1-.518 0l-.192-.14C6.534 14.014 2 10.255 2 4.188c0-.179.101-.342.26-.42L7.8 1.047a.455.455 0 0 1 .4 0zm-.2.939L2.924 4.479C3.064 9.7 6.95 13.12 8 13.95l.252-.206c1.31-1.1 4.693-4.4 4.824-9.266L8 1.986zm2.646 4.474a.47.47 0 0 1 0 .66l-3.083 3.13L5.86 8.519a.471.471 0 0 1 0-.66.455.455 0 0 1 .651 0l1.053 1.069L9.995 6.46a.455.455 0 0 1 .65 0z"/>
</svg>
